# xmcd CD database file
#
# Track frame offsets:
#	150
#	10207
#	22846
#	43116
#	54072
#	66318
#	79183
#	98999
#	125404
#	144170
#	160079
#	170863
#	184721
#	194543
#	217599
#	229807
#
# Disc length: 3403 seconds
#
# Revision: 2
# Processed by: cddbd v1.5.2PL0 Copyright (c) Steve Scherf et al.
# Submitted via: CDex 1.77
#
DISCID=ce0d4910
DTITLE=Various Artist - Best Of The Blues ( CD 1 )
DYEAR=2004
DGENRE=Blues
TTITLE0=John Lee Hooker - Dimples
TTITLE1=Jimmy Reed - Honest I Do
TTITLE2=Muddy Waters - Baby Don't Go
TTITLE3=Junior Parker - Mystery Train
TTITLE4=Ottis Rush - All Your Love
TTITLE5=Elmore James - The Sky Is Crying
TTITLE6=Albert King - Cadillac Assembly Line
TTITLE7=John Mayall - Ridin' On The L and N
TTITLE8=Robert Cray - The Score
TTITLE9=Sonny Terry and Brownie McGhee - Walk On
TTITLE10=Lighnin Hopkins - Coffee House Blues
TTITLE11=T-Bone Walker - Call It Stormy Monday (But Tuesday's Just As Bad)
TTITLE12=Eric Clapton and Jimmy Page - Tribute To Elmore
TTITLE13=Lonnie Brooks - Trading Post
TTITLE14=Robert Johnson - Cross Road Blues
TTITLE15=Junior Wells - I Got My Mojo Working
EXTD=YEAR: 2004
EXTT0=
EXTT1=
EXTT2=
EXTT3=
EXTT4=
EXTT5=
EXTT6=
EXTT7=
EXTT8=
EXTT9=
EXTT10=
EXTT11=
EXTT12=
EXTT13=
EXTT14=
EXTT15=
PLAYORDER=
